<?xml version="1.0" standalone="no"?>
<!DOCTYPE svg PUBLIC "-//W3C//DTD SVG 1.1//EN"
  "http://www.w3.org/Graphics/SVG/1.1/DTD/svg11.dtd">
<svg width="62.5mm" height="16.499999999999996mm" viewBox="-45.75 21.249999999999996 62.5 16.499999999999996" xmlns="http://www.w3.org/2000/svg" version="1.1">
	<title>svgOutput</title>
	<desc>made with tinkercad</desc>
<path d="M -21.886499404907227 30.374999999999993 L -22.64080047607422 31.359199523925774 L -23.625 32.11349868774413 L -24.770700454711914 32.58850097656249 L -26 32.74999999999999 L -27.229299545288086 32.58850097656249 L -28.176000595092773 32.19600296020507 L -28.375 32.11349868774413 L -29.35919952392578 31.359199523925774 L -30.113500595092773 30.374999999999993 L -30.11928367614746 30.361049652099602 L -30.588499069213867 29.22929954528808 L -30.75 27.999999999999993 L -30.69814682006836 27.60531044006347 L -30.588499069213867 26.770700454711907 L -30.113500595092773 25.624999999999993 L -29.35919952392578 24.64080047607421 L -28.375 23.886499404907223 L -27.602581024169922 23.56625938415527 L -27.229299545288086 23.41150093078613 L -26 23.249999999999996 L -24.770700454711914 23.41150093078613 L -23.625 23.886499404907223 L -22.648191452026367 24.63513565063476 L -22.64080047607422 24.64080047607421 L -21.886499404907227 25.624999999999993 L -21.411500930786133 26.770700454711907 L -21.25 27.999999999999993 L -21.411500930786133 29.22929954528808 L -21.492698669433594 29.425149917602532 L -21.886499404907227 30.374999999999993 M -35.4114990234375 30.770700454711907 L -35.25 31.999999999999993 L -35.4114990234375 33.22930145263671 L -35.88650131225586 34.37499999999999 L -36.64080047607422 35.359199523925774 L -37.625 36.11349868774413 L -38.77069854736328 36.58850097656249 L -40 36.74999999999999 L -41.22930145263672 36.58850097656249 L -42.375 36.11349868774413 L -43.35919952392578 35.359199523925774 L -44.11349868774414 34.37499999999999 L -44.5885009765625 33.22930145263671 L -44.75 31.999999999999993 L -44.5885009765625 30.770700454711907 L -44.11349868774414 29.624999999999993 L -43.35919952392578 28.64080047607421 L -42.375 27.88649940490722 L -41.22930145263672 27.411500930786126 L -40 27.249999999999993 L -38.77069854736328 27.411500930786126 L -37.625 27.88649940490722 L -36.64080047607422 28.64080047607421 L -35.88650131225586 29.624999999999993 L -35.4114990234375 30.770700454711907 M -5.375 35.11349868774413 L -6.3592000007629395 34.359199523925774 L -7.113500118255615 33.37499999999999 L -7.268972873687744 32.99999999999999 L -7.588500022888184 32.22930145263671 L -7.75 30.999999999999993 L -7.588500022888184 29.770700454711907 L -7.113500118255615 28.624999999999993 L -6.3592000007629395 27.64080047607421 L -5.375 26.88649940490722 L -4.229300022125244 26.411500930786126 L -3 26.249999999999993 L -1.7706999778747559 26.411500930786126 L -0.625 26.88649940490722 L 0.35920000076293945 27.64080047607421 L 1.1134999990463257 28.624999999999993 L 1.5885000228881836 29.770700454711907 L 1.75 30.999999999999993 L 1.5885000228881836 32.22930145263671 L 1.268972635269165 32.99999999999999 L 1.1134999990463257 33.37499999999999 L 0.35920000076293945 34.359199523925774 L -0.625 35.11349868774413 L -1.7706999778747559 35.58850097656249 L -3 35.74999999999999 L -4.229300022125244 35.58850097656249 L -5.375 35.11349868774413 M 14.359199523925781 30.359199523925774 L 13.375 31.113500595092766 L 12.229299545288086 31.58849906921386 L 11 31.749999999999993 L 9.770700454711914 31.58849906921386 L 8.824000358581543 31.196004867553704 L 8.625 31.113500595092766 L 7.6407999992370605 30.359199523925774 L 6.886499881744385 29.374999999999993 L 6.880716323852539 29.361049652099602 L 6.411499977111816 28.22929954528808 L 6.25 26.999999999999993 L 6.301852703094482 26.60531044006347 L 6.411499977111816 25.770700454711907 L 6.886499881744385 24.624999999999993 L 7.6407999992370605 23.640800476074215 L 8.625 22.886499404907223 L 9.397418022155762 22.56625938415527 L 9.770700454711914 22.41150093078613 L 11 22.249999999999996 L 12.229299545288086 22.41150093078613 L 13.375 22.886499404907223 L 14.351808547973633 23.635135650634762 L 14.359199523925781 23.640800476074215 L 15.113499641418457 24.624999999999993 L 15.588500022888184 25.770700454711907 L 15.75 26.999999999999993 L 15.588500022888184 28.22929954528808 L 15.507302284240723 28.425149917602532 L 15.113499641418457 29.374999999999993 L 14.359199523925781 30.359199523925774 M -9.244999885559082 26.454999923706048 L -9 27.999999999999993 L -9.244999885559082 29.545000076293938 L -9.954999923706055 30.938999176025384 L -11.060999870300293 32.044998168945305 L -12.454999923706055 32.75500106811523 L -12.536979675292969 32.76800155639648 L -14 32.99999999999999 L -15.463020324707031 32.76800155639648 L -15.545000076293945 32.75500106811523 L -16.384000778198242 32.32767486572265 L -16.93899917602539 32.044998168945305 L -18.045000076293945 30.938999176025384 L -18.7549991607666 29.545000076293938 L -19 27.999999999999993 L -18.7549991607666 26.454999923706048 L -18.045000076293945 25.061000823974602 L -16.93899917602539 23.95499992370605 L -16.384000778198242 23.67232513427734 L -15.545000076293945 23.245000839233395 L -14 22.999999999999996 L -12.454999923706055 23.245000839233395 L -11.060999870300293 23.95499992370605 L -9.954999923706055 25.061000823974602 L -9.244999885559082 26.454999923706048 z" fill="none" stroke="rgb(255,0,0)" stroke-width="0.001mm" />
</svg>